<?xml version="1.0" standalone="no"?>
<!DOCTYPE svg PUBLIC "-//W3C//DTD SVG 20010904//EN"
 "http://www.w3.org/TR/2001/REC-SVG-20010904/DTD/svg10.dtd">
<svg version="1.0" xmlns="http://www.w3.org/2000/svg"
 width="500.000000pt" height="500.000000pt" viewBox="0 0 500.000000 500.000000"
 preserveAspectRatio="xMidYMid meet">
<metadata>
Created by potrace 1.11, written by Peter Selinger 2001-2013
</metadata>
<g transform="translate(0.000000,500.000000) scale(0.100000,-0.100000)"
fill="#000000" stroke="none">
<path d="M2235 4680 c-225 -41 -429 -121 -592 -232 l-43 -29 -57 34 c-67 38
-152 73 -203 82 -29 5 -22 -1 40 -35 41 -23 97 -58 124 -78 l49 -36 -39 -30
c-71 -55 -228 -221 -285 -302 -63 -88 -133 -211 -167 -294 -13 -30 -27 -64
-32 -75 -10 -21 -54 -171 -64 -216 -22 -101 -33 -236 -30 -369 4 -179 24 -297
79 -460 32 -95 33 -100 15 -110 -33 -17 -37 -45 -39 -253 l-1 -109 -47 7
c-188 28 -380 -6 -498 -87 -39 -26 -44 -38 -16 -38 30 0 129 -62 190 -119 60
-55 59 -49 3 -111 -66 -72 -138 -216 -156 -312 -7 -38 5 -52 21 -25 14 23 76
55 135 70 56 15 225 16 293 2 46 -9 139 -28 150 -31 6 -2 19 -5 30 -8 11 -2
49 -12 85 -22 95 -25 175 -23 203 4 20 20 22 35 25 133 3 98 6 110 20 103 82
-36 364 -122 453 -139 13 -3 35 -7 49 -10 32 -7 54 -11 110 -20 25 -4 53 -9
64 -11 106 -20 553 -27 706 -11 203 20 447 77 666 155 l109 40 1 -102 c0 -57
6 -110 12 -123 24 -45 104 -49 241 -13 101 27 108 29 166 41 220 44 398 29
487 -42 20 -16 39 -29 41 -29 2 0 1 20 -4 44 -18 97 -88 230 -165 315 -20 23
-34 47 -31 54 17 46 223 187 249 171 4 -3 8 -1 8 3 0 14 -107 72 -172 94 -104
35 -237 44 -360 24 l-48 -7 -1 38 c0 22 -2 95 -4 164 -5 124 -5 125 -35 152
l-30 27 24 68 c27 75 61 206 70 268 3 22 8 60 12 85 10 73 7 288 -6 380 -55
405 -267 771 -595 1025 -189 146 -386 236 -635 292 -154 34 -422 40 -575 13z"/>
<path d="M1239 1265 c-98 -19 -153 -73 -192 -189 -25 -72 -18 -261 11 -337 63
-159 176 -258 314 -274 l57 -7 10 38 c14 56 30 127 31 139 0 6 -17 11 -37 12
-53 3 -115 29 -146 61 -93 98 -113 298 -35 353 24 18 44 21 119 21 l90 1 -5
32 c-6 36 -34 146 -39 151 -9 10 -130 9 -178 -1z"/>
<path d="M143 1183 c-12 -48 -19 -90 -17 -93 3 -2 76 -5 163 -5 172 0 191 -5
191 -54 0 -15 -7 -38 -16 -51 -22 -33 -116 -130 -126 -130 -4 0 -8 47 -8 104
l0 105 -89 -1 -89 -1 0 -298 -1 -298 90 1 89 1 0 186 0 186 35 -85 c53 -127
129 -272 198 -376 l21 -32 73 66 c73 65 73 66 54 86 -40 45 -147 233 -164 291
-5 14 4 31 31 60 50 54 67 82 85 141 30 102 3 196 -72 249 l-43 30 -192 3
-192 3 -21 -88z"/>
<path d="M769 1248 c0 -28 0 -770 0 -780 1 -5 41 -8 90 -8 l89 0 0 405 0 405
-89 0 c-85 0 -89 -1 -90 -22z"/>
<path d="M1552 838 c3 -359 6 -439 18 -466 l15 -32 74 61 c73 59 75 62 73 102
-2 23 -5 106 -7 185 l-3 142 36 1 c73 2 132 0 140 -4 4 -3 6 -87 6 -186 l-1
-181 83 0 c73 0 84 2 85 18 0 23 1 741 0 770 -1 22 -3 23 -83 20 l-83 -3 -2
-105 c0 -58 -2 -114 -2 -126 -1 -20 -6 -21 -83 -18 -46 1 -86 2 -89 3 -4 1 -7
43 -7 94 0 50 0 107 -1 125 l-1 32 -85 0 -86 0 3 -432z"/>
<path d="M2450 1254 c-130 -39 -216 -128 -271 -280 -17 -46 -22 -86 -25 -189
-3 -146 18 -253 72 -374 l29 -63 65 52 c36 28 67 53 69 55 1 2 -7 32 -18 68
-24 71 -29 93 -37 153 l-6 42 86 0 c48 -1 89 -5 92 -10 3 -4 6 -62 6 -128 l0
-120 88 0 87 0 -1 298 -1 297 -75 1 c-99 0 -102 -1 -100 -50 1 -22 1 -55 1
-71 l-1 -31 -80 0 c-44 0 -80 4 -80 9 0 18 40 84 67 111 45 45 106 64 204 64
82 0 84 1 83 24 -1 28 -11 82 -22 123 l-8 30 -90 1 c-50 1 -109 -4 -134 -12z"/>
<path d="M2801 1208 c-7 -35 -15 -76 -18 -93 l-5 -30 149 2 c81 2 158 1 170
-2 34 -8 45 -37 30 -80 -14 -41 -127 -161 -137 -145 -4 6 -6 51 -5 100 1 50
-1 91 -4 91 -3 1 -43 2 -88 3 l-83 2 0 -85 c-2 -354 -1 -491 4 -500 3 -5 43
-9 89 -8 l82 2 0 182 c0 100 0 181 1 180 1 -1 16 -38 35 -82 39 -97 112 -237
172 -333 l44 -71 71 66 71 65 -48 71 c-26 40 -69 114 -95 165 l-48 92 51 55
c108 119 120 274 28 366 -42 41 -89 49 -279 49 l-174 0 -13 -62z"/>
<path d="M3417 1198 c-29 -123 -41 -113 134 -113 169 0 199 -8 226 -58 33 -66
9 -230 -44 -299 -28 -37 -106 -84 -121 -74 -5 3 -9 90 -9 194 0 104 -2 193 -6
198 -4 8 -113 11 -162 5 -7 -1 -10 -100 -10 -293 l0 -293 95 -2 c208 -4 328
75 406 267 36 89 49 242 27 335 -17 73 -51 127 -101 160 -53 35 -65 37 -252
42 l-166 5 -17 -74z"/>
<path d="M4073 1252 c6 -9 38 -44 70 -78 52 -55 63 -62 98 -62 21 -1 39 2 39
6 0 4 -19 39 -43 77 l-43 69 -67 2 c-59 1 -65 -1 -54 -14z"/>
<path d="M4565 1257 c-93 -30 -134 -142 -95 -256 14 -41 86 -160 110 -181 3
-3 26 -36 52 -74 62 -91 58 -96 -79 -96 -104 0 -104 0 -97 -22 4 -13 14 -54
23 -93 l16 -70 115 -2 c63 -1 129 3 147 8 76 24 116 83 116 169 0 73 -24 126
-121 263 -97 138 -107 156 -93 170 6 6 50 10 102 10 l91 -1 -6 32 c-12 62 -14
72 -25 112 l-11 42 -108 0 c-59 0 -120 -5 -137 -11z"/>
</g>
</svg>
